<?xml version="1.0" encoding="utf-8"?>
<!-- Generator: Adobe Illustrator 22.0.1, SVG Export Plug-In . SVG Version: 6.00 Build 0)  -->
<svg version="1.1" id="Layer_1" xmlns="http://www.w3.org/2000/svg" xmlns:xlink="http://www.w3.org/1999/xlink" x="0px" y="0px"
	 viewBox="0 0 431.5 529.8" style="enable-background:new 0 0 431.5 529.8;" xml:space="preserve">
<style type="text/css">
	.st0{fill:#EE4034;}
	.st1{fill:#354C9F;}
	.st2{opacity:0.85;fill:url(#SVGID_1_);}
	.st3{fill:#4E61AB;}
</style>
<g>
	<polygon class="st0" points="214.1,45.3 331.5,215.2 214.1,7.6 96.6,215.3 	"/>
	<polygon class="st1" points="214.1,130 351.5,374.4 421.5,374.4 331.5,215.2 214.1,45.3 96.6,215.3 6.6,374.4 76.6,374.4 	"/>
	<linearGradient id="SVGID_1_" gradientUnits="userSpaceOnUse" x1="272.7911" y1="23.6114" x2="272.7911" y2="78.3812">
		<stop  offset="0" style="stop-color:#F26C54"/>
		<stop  offset="1" style="stop-color:#EF4135"/>
	</linearGradient>
	<polygon class="st2" points="214.1,7.6 214.1,45.3 331.5,215.2 	"/>
	<polygon class="st3" points="331.5,215.2 214.1,45.3 214.1,130 351.5,374.4 421.5,374.4 	"/>
</g>
<g>
	<path class="st3" d="M58.6,460.8h-6.1l-5.9-13.3H19.1l-6,13.3H7.3l23-50.8h5.3L58.6,460.8z M32.9,416.6l-11.5,25.7h23L32.9,416.6z"
		/>
	<path class="st3" d="M103.5,461.6c-15.9,0-25.7-11.5-25.7-26c0-13.9,10.2-26.2,25.3-26.2c8.5,0,13.8,2.4,18.8,6.7l-3.7,4.3
		c-3.9-3.4-8.2-5.8-15.4-5.8c-11.2,0-19.2,9.4-19.2,20.8c0,12.1,7.7,21,20,21c5.8,0,11.1-2.2,14.6-5v-12.5h-15.4v-5.1h20.8v20.1
		C119,458.1,112,461.6,103.5,461.6z"/>
	<path class="st3" d="M157.1,410.3v50.4h-5.7v-50.4H157.1z"/>
	<path class="st3" d="M186.3,410.3h5.7v45.2h28.4v5.3h-34.1V410.3z"/>
	<path class="st3" d="M292.3,460.8h-6.1l-5.9-13.3h-27.5l-6,13.3H241l23-50.8h5.3L292.3,460.8z M266.6,416.6L255,442.3h23
		L266.6,416.6z"/>
	<path class="st3" d="M353.7,410.3h5.6v50.4h-4.5l-32.6-41.4v41.4h-5.6v-50.4h5.3l31.8,40.4V410.3z"/>
	<path class="st3" d="M407.1,460.8h-5.8v-45.2h-16.9v-5.3H424v5.3h-16.9V460.8z"/>
	<path class="st3" d="M18.3,504.5c6.1,1.3,9,3.6,9,7.8c0,4.8-3.9,7.8-9.4,7.8c-4.4,0-7.9-1.5-11.2-4.4l1.9-2.3
		c2.9,2.6,5.6,3.9,9.4,3.9c3.7,0,6.1-1.9,6.1-4.7c0-2.6-1.4-4-7.2-5.3c-6.3-1.4-9.2-3.4-9.2-8c0-4.4,3.8-7.5,9-7.5
		c4,0,6.9,1.1,9.7,3.4l-1.8,2.4c-2.6-2.1-5.1-3-7.9-3c-3.6,0-5.9,2-5.9,4.5C10.8,501.7,12.2,503.2,18.3,504.5z"/>
	<path class="st3" d="M54.2,520.2c-8.4,0-14-6.6-14-14.2c0-7.6,5.7-14.3,14.1-14.3s14,6.6,14,14.2C68.2,513.6,62.6,520.2,54.2,520.2
		z M54.2,494.6c-6.3,0-10.8,5-10.8,11.3c0,6.3,4.6,11.4,10.8,11.4c6.3,0,10.8-5,10.8-11.3C65,499.7,60.5,494.6,54.2,494.6z"/>
	<path class="st3" d="M82.7,492.2h3.1v24.6h15.5v2.9H82.7V492.2z"/>
	<path class="st3" d="M136.5,508c0,8-4.6,12.2-11.5,12.2c-6.8,0-11.4-4.2-11.4-11.9v-16h3.1V508c0,5.9,3.1,9.3,8.4,9.3
		c5.1,0,8.3-3.1,8.3-9.1v-16h3.1V508z"/>
	<path class="st3" d="M162.2,519.7H159v-24.6h-9.2v-2.9h21.6v2.9h-9.2V519.7z"/>
	<path class="st3" d="M188.5,492.2v27.5h-3.1v-27.5H188.5z"/>
	<path class="st3" d="M217.2,520.2c-8.4,0-14-6.6-14-14.2c0-7.6,5.7-14.3,14.1-14.3c8.4,0,14,6.6,14,14.2
		C231.2,513.6,225.5,520.2,217.2,520.2z M217.2,494.6c-6.3,0-10.8,5-10.8,11.3c0,6.3,4.6,11.4,10.8,11.4c6.3,0,10.8-5,10.8-11.3
		C228,499.7,223.4,494.6,217.2,494.6z"/>
	<path class="st3" d="M265.9,492.2h3v27.5h-2.5l-17.8-22.5v22.5h-3v-27.5h2.9l17.3,22V492.2z"/>
	<path class="st3" d="M294.4,504.5c6.1,1.3,9,3.6,9,7.8c0,4.8-3.9,7.8-9.4,7.8c-4.4,0-7.9-1.5-11.2-4.4l1.9-2.3
		c2.9,2.6,5.6,3.9,9.4,3.9c3.7,0,6.1-1.9,6.1-4.7c0-2.6-1.4-4-7.2-5.3c-6.3-1.4-9.2-3.4-9.2-8c0-4.4,3.8-7.5,9-7.5
		c4,0,6.9,1.1,9.7,3.4l-1.8,2.4c-2.6-2.1-5.1-3-7.9-3c-3.6,0-5.9,2-5.9,4.5C287,501.7,288.4,503.2,294.4,504.5z"/>
	<path class="st3" d="M340.6,492.2v27.5h-3.1v-27.5H340.6z"/>
	<path class="st3" d="M376.8,492.2h3v27.5h-2.5l-17.8-22.5v22.5h-3v-27.5h2.9l17.3,22V492.2z"/>
	<path class="st3" d="M408,520.2c-7.9,0-13.8-6.2-13.8-14.2c0-7.9,5.8-14.3,13.9-14.3c5,0,8,1.8,10.7,4.4l-2.1,2.3
		c-2.3-2.2-4.9-3.8-8.6-3.8c-6.1,0-10.6,4.9-10.6,11.3c0,6.4,4.6,11.4,10.6,11.4c3.8,0,6.2-1.5,8.9-4l2,2
		C416.1,518.3,413,520.2,408,520.2z"/>
</g>
</svg>
